<?xml version="1.0" encoding="UTF-8" standalone="no"?>
<!-- Created with Inkscape (http://www.inkscape.org/) -->

<svg
   width="210mm"
   height="297mm"
   viewBox="0 0 210 297"
   version="1.1"
   id="svg1908"
   inkscape:version="1.2.2 (732a01da63, 2022-12-09)"
   sodipodi:docname="frontpage.svg"
   xml:space="preserve"
   inkscape:export-filename="frontpage.pdf"
   inkscape:export-xdpi="600"
   inkscape:export-ydpi="600"
   xmlns:inkscape="http://www.inkscape.org/namespaces/inkscape"
   xmlns:sodipodi="http://sodipodi.sourceforge.net/DTD/sodipodi-0.dtd"
   xmlns:xlink="http://www.w3.org/1999/xlink"
   xmlns="http://www.w3.org/2000/svg"
   xmlns:svg="http://www.w3.org/2000/svg"><sodipodi:namedview
     id="namedview1910"
     pagecolor="#ffffff"
     bordercolor="#000000"
     borderopacity="0.25"
     inkscape:showpageshadow="2"
     inkscape:pageopacity="0.0"
     inkscape:pagecheckerboard="0"
     inkscape:deskcolor="#d1d1d1"
     inkscape:document-units="mm"
     showgrid="false"
     inkscape:zoom="0.5946522"
     inkscape:cx="284.19974"
     inkscape:cy="618.84914"
     inkscape:window-width="1920"
     inkscape:window-height="1017"
     inkscape:window-x="-8"
     inkscape:window-y="-8"
     inkscape:window-maximized="1"
     inkscape:current-layer="layer1" /><defs
     id="defs1905"><clipPath
       clipPathUnits="userSpaceOnUse"
       id="clipPath3151"><rect
         style="fill:#cc0000;stroke:#808080;stroke-width:0.264583;stroke-linecap:round;stroke-dasharray:0.264583, 0.79375"
         id="rect3153"
         width="210"
         height="297"
         x="0"
         y="0" /></clipPath><clipPath
       id="clipPath16105"
       clipPathUnits="userSpaceOnUse"><path
         inkscape:connector-curvature="0"
         id="path16103"
         d="M 44.519,0 H 159.145 V 56.285 H 44.519 Z" /></clipPath></defs><g
     inkscape:label="Layer 1"
     inkscape:groupmode="layer"
     id="layer1"><image
       width="210"
       height="297"
       preserveAspectRatio="none"
       xlink:href="balloons.jpg"
       id="image1256"
       x="0"
       y="5.6843419e-14" /><g
       id="g9457"
       transform="matrix(1.131278,0,0,1.131278,133.27847,5.0897305)"><path
         style="fill:#c5000c;fill-rule:nonzero;stroke:none;stroke-width:0.282222"
         inkscape:connector-curvature="0"
         id="path3012"
         d="m 18.470349,14.026142 c -0.0062,-0.496513 -0.174763,-1.511437 -1.362692,-2.087425 1.206311,0.383249 1.786489,1.40243 1.845825,2.162845 1.26639,0.252413 2.390253,0.848405 4.215061,0.219096 l 0.0063,-0.0041 c 0,0 -2.401269,0.0219 -3.405447,-0.704594 0.51868,0.0196 1.115618,-0.09779 1.311263,-0.391426 0.208554,-0.312762 0.230044,-0.635797 0.743791,-0.652354 0.288636,-0.0093 1.267336,0.06373 1.369991,-1.373302 -0.313168,0.528479 -0.652354,0.747034 -1.164547,0.616536 -0.326954,-0.08333 -0.923824,-0.333509 -1.350392,0.176115 -0.352297,0.420756 -0.730612,0.639379 -1.334173,0.574096 0.241464,-0.326143 3.839313,-4.9972366 3.839313,-4.9972366 0,0 -4.609123,3.6990156 -4.863495,3.9143276 -0.04893,-0.675264 0.153272,-0.923149 0.424,-1.219963 0.221461,-0.242883 0.606669,-0.5717296 0.300057,-1.2657126 -0.247818,-0.561053 -0.215244,-0.900307 0.46002,-1.438518 -0.538278,0.0392 -1.359584,0.401225 -1.262471,1.389657 0.0588,0.596938 -0.364191,0.64857 -0.518612,0.733856 -0.401225,0.221867 -0.453465,0.8677326 -0.46644,1.3700586 -0.04568,-0.163072 -0.629445,-2.6732796 -0.834957,-3.4855296 -1.35e-4,4.06e-4 -6.7e-5,6.7539906 -6.7e-5,6.7539906 h 0.01548 c 0.782244,-0.308032 1.432908,-0.355135 2.032211,-0.290461" /><path
         id="path3036"
         style="fill:#000000;fill-rule:nonzero;stroke:none;stroke-width:0.282222"
         d="m 57.042366,12.088408 h -0.68317 v 1.733371 c 0,0.290934 0.11394,0.373179 0.4682,0.373179 h 0.24031 v 0.120226 h -1.56239 v -0.120226 c 0.36683,0 0.43022,-0.08225 0.43022,-0.436502 v -1.670048 h -0.4682 v -0.107521 c 0.17699,-0.03798 0.32891,-0.09488 0.4682,-0.170775 0,-0.525101 0.11387,-0.923623 0.48719,-1.296802 0.30979,-0.310059 0.607,-0.449207 0.89807,-0.449207 0.35426,0 0.65161,0.202471 0.65161,0.297354 0,0.05062 -0.12022,0.303571 -0.17077,0.303571 -0.0887,0 -0.3227,-0.309856 -0.74021,-0.309856 -0.45536,0 -0.70223,0.360542 -0.70223,0.974105 v 0.480835 h 0.63897 l 0.0442,0.278296 m -4.08632,0.778053 c 0,-0.543955 0.38582,-0.974104 0.80319,-0.974104 0.53153,0 0.97431,0.61363 0.97431,1.334781 0,0.632486 -0.42379,1.012153 -0.79704,1.012153 -0.54409,0 -0.98046,-0.607346 -0.98046,-1.37283 z m -0.47441,0.215177 c 0,0.740141 0.60086,1.309439 1.38526,1.309439 0.75278,0 1.34107,-0.575651 1.34107,-1.322077 0,-0.752846 -0.58829,-1.328496 -1.36006,-1.328496 -0.65783,0 -1.36627,0.468129 -1.36627,1.341134 m -2.16616,-0.569366 c 0.18963,-0.480767 0.0694,-0.57565 -0.30377,-0.588287 v -0.113873 h 1.05006 v 0.113873 c -0.25931,0.03163 -0.40474,0.208756 -0.52483,0.506042 l -1.075474,2.682268 c -0.189834,0.468184 -0.335266,0.676731 -0.556593,0.676731 -0.151988,0 -0.259374,-0.09477 -0.259374,-0.221354 0,-0.259333 0.366624,-0.196138 0.524897,-0.354209 0.06954,-0.06968 0.164493,-0.234099 0.215042,-0.360541 L 49.5752,14.378371 48.594676,12.297164 C 48.474652,12.03779 48.360778,11.930337 48.094917,11.923985 v -0.113873 h 1.271594 v 0.113873 c -0.38595,0.0064 -0.430013,0.120225 -0.303569,0.385816 l 0.714798,1.543605 0.537736,-1.341134 m -2.50237,-0.70216 -0.101233,0.278296 h -0.803196 v 1.473997 c 0,0.398522 0.284582,0.531318 0.417379,0.531318 0.139147,0 0.265861,-0.107453 0.385817,-0.316277 l 0.101233,0.09488 c -0.151784,0.328914 -0.398452,0.518748 -0.689522,0.518748 -0.373248,0 -0.638838,-0.309992 -0.638838,-0.733789 v -1.568877 h -0.29107 v -0.101236 c 0.246738,-0.120158 0.461845,-0.411159 0.607348,-0.803396 h 0.107653 v 0.626336 h 0.904429 m -2.258133,2.024237 c 0,0.221461 0.120091,0.360609 0.455357,0.360609 v 0.120226 h -1.404389 v -0.120226 c 0.386089,0 0.5251,-0.12651 0.5251,-0.461777 v -1.271459 c 0,-0.246736 -0.03156,-0.278364 -0.196187,-0.309991 l -0.297216,-0.05697 v -0.101168 l 0.822319,-0.284716 h 0.09502 z m -0.259642,-3.548785 c 0.152056,0 0.278497,0.107453 0.278497,0.240384 0,0.132795 -0.126441,0.240383 -0.278497,0.240383 -0.151516,0 -0.271743,-0.107588 -0.271743,-0.240383 0,-0.132931 0.120227,-0.240384 0.271743,-0.240384 m -2.481151,3.390714 c 0.07569,0.379532 0.316075,0.594573 0.600927,0.594573 0.252886,0 0.449072,-0.189766 0.449072,-0.417445 0,-0.132863 -0.0317,-0.215108 -0.202539,-0.385884 -0.44914,-0.449139 -0.948761,-0.493405 -0.948761,-1.018573 0,-0.417444 0.329049,-0.708445 0.809814,-0.708445 0.170643,0 0.347907,0.03798 0.505909,0.101235 l 0.0127,0.57565 h -0.107453 c -0.04447,-0.322629 -0.253292,-0.525032 -0.506177,-0.525032 -0.208825,0 -0.38575,0.145433 -0.38575,0.354257 0,0.556727 1.176373,0.651543 1.176373,1.423312 0,0.411159 -0.341483,0.721151 -0.784338,0.721151 -0.120091,0 -0.208757,-0.01899 -0.278364,-0.04433 -0.06954,-0.01892 -0.119956,-0.03791 -0.170776,-0.03791 -0.03791,0 -0.07576,0.02534 -0.107453,0.07596 h -0.09488 l -0.06961,-0.708514 h 0.101301 m -1.594488,0.177128 c 0,0.259307 0.09475,0.341552 0.411161,0.341552 h 0.24045 v 0.120226 h -1.499407 v -0.120231 c 0.322696,-0.0063 0.423932,-0.139148 0.423932,-0.474415 v -1.461292 l -0.423932,-0.151853 v -0.107521 l 0.721219,-0.253021 h 0.126577 v 0.670533 h 0.01264 c 0.316278,-0.518747 0.392171,-0.638905 0.60086,-0.638905 0.07603,0 0.09502,0.0063 0.215107,0.05697 0.06326,0.02528 0.177128,0.05055 0.329116,0.09488 l -0.151988,0.379464 c -0.09488,-0.01264 -0.214971,-0.0442 -0.335198,-0.101168 -0.06961,-0.03156 -0.1455,-0.06332 -0.221395,-0.06332 -0.113871,0 -0.183614,0.07596 -0.246803,0.16449 -0.08225,0.113874 -0.151785,0.221394 -0.202337,0.316277 v 1.227328 m -3.048288,-1.309506 c 0.145771,-0.588288 0.461978,-0.683171 0.670939,-0.683171 0.303436,0 0.556457,0.272012 0.626064,0.683171 z m 1.828388,0.164491 V 12.562889 C 39.7911,12.354133 39.809955,11.740503 38.95601,11.740503 c -0.77177,0 -1.220842,0.683171 -1.220842,1.353704 0,0.733856 0.480633,1.296869 1.100548,1.296869 0.461845,0 0.860368,-0.316277 1.126027,-0.651611 l -0.06954,-0.07589 c -0.240315,0.284649 -0.487051,0.411227 -0.803329,0.411227 -0.499824,0 -0.961669,-0.442855 -0.961669,-1.100683 0,-0.08231 0.01278,-0.170776 0.02534,-0.265726 h 1.847243 m -3.915949,1.663696 -0.917404,-2.100198 c -0.09488,-0.221394 -0.177129,-0.297354 -0.278229,-0.316277 l -0.196389,-0.03163 v -0.113873 h 1.290787 v 0.113873 c -0.386087,0.01264 -0.50611,0.06319 -0.354459,0.360541 l 0.670668,1.575098 0.645326,-1.461225 c 0.11394,-0.259374 0.05677,-0.442787 -0.404942,-0.474414 v -0.113873 h 1.100547 v 0.113873 c -0.240114,0.0442 -0.379464,0.183413 -0.499622,0.461777 l -0.872802,1.986325 h -0.183481 m -1.900024,-0.537738 c 0,0.221461 0.120293,0.360609 0.455425,0.360609 v 0.120226 h -1.40439 v -0.120225 c 0.385952,0 0.5251,-0.12651 0.5251,-0.461777 v -1.271459 c 0,-0.246736 -0.03163,-0.278364 -0.196118,-0.309991 l -0.297287,-0.05697 v -0.101168 l 0.822319,-0.284716 h 0.09495 z m -0.259374,-3.548785 c 0.151854,0 0.278296,0.107453 0.278296,0.240384 0,0.132795 -0.126442,0.240383 -0.278296,0.240383 -0.151853,0 -0.272079,-0.107588 -0.272079,-0.240383 0,-0.132931 0.120226,-0.240384 0.272079,-0.240384 m -3.158237,3.479245 c 0,0.347904 0.08218,0.430149 0.423797,0.430149 v 0.120226 h -1.271455 v -0.120225 c 0.278296,0 0.423797,-0.151853 0.423797,-0.398522 v -1.328429 c 0,-0.234031 -0.02534,-0.278364 -0.189833,-0.309991 l -0.215041,-0.04427 v -0.101235 l 0.727436,-0.265659 h 0.101303 v 0.493405 c 0.423797,-0.265726 0.778054,-0.499757 1.088045,-0.499757 0.430217,0 0.676751,0.316276 0.676751,0.948897 0,0.841376 -0.0442,1.005867 -0.05048,1.252536 -0.0063,0.170776 0.09488,0.253021 0.354189,0.253021 h 0.139216 V 14.31518 H 31.61387 v -0.120222 c 0.183413,-0.0063 0.290933,-0.05062 0.360541,-0.120158 0.120158,-0.120226 0.132863,-0.582003 0.132863,-1.423379 0,-0.50611 -0.246736,-0.664249 -0.499757,-0.664249 -0.202471,0 -0.512395,0.177196 -0.841309,0.404942 v 1.372695 m -0.831375,-3.384362 v 0.120158 c -0.423797,0.0064 -0.575515,0.177128 -0.575515,0.58207 v 1.707961 c 0,0.784474 -0.499893,1.625716 -1.872587,1.625716 -1.208271,0 -1.828187,-0.689524 -1.828187,-1.594088 v -1.847177 c 0,-0.404874 -0.113873,-0.46813 -0.543954,-0.474482 v -0.120158 h 1.625715 v 0.120158 h -0.05697 c -0.347837,0 -0.499758,0.09495 -0.499758,0.461845 v 1.758578 c 0,0.854082 0.499758,1.366477 1.442302,1.366477 0.714866,0 1.44237,-0.297421 1.44237,-1.372829 v -1.473862 c 0,-0.607346 -0.09488,-0.714866 -0.619983,-0.740209 v -0.120158 h 1.486567 m 28.387443,11.390774 h -3.81337 v -0.162025 h 0.28141 c 0.39237,0 0.53733,-0.128098 0.53733,-0.563147 v -3.779424 c 0,-0.451944 -0.13638,-0.639575 -0.67371,-0.639575 h -0.11948 v -0.162281 h 2.5165 v 0.162281 h -0.31581 c -0.55416,0 -0.69959,0.05973 -0.69959,0.588694 v 3.932601 c 0,0.230456 0.0943,0.315858 0.34135,0.315858 h 1.25409 c 0.50327,0 0.65654,-0.196342 1.19435,-0.938402 h 0.15347 l -0.65654,1.24542 m -4.76564,-2.516778 c 0,1.211366 -0.66526,2.43969 -2.05573,2.43969 -1.37377,0 -2.456887,-1.125635 -2.456887,-2.721034 0,-1.023871 0.596733,-2.422935 2.098437,-2.422935 1.4077,0 2.41418,1.117916 2.41418,2.704279 z m 0.80198,-0.281344 c 0,-1.535543 -1.38203,-2.636165 -2.99429,-2.636165 -1.81697,0 -3.122555,1.202851 -3.122555,2.900412 0,1.595668 1.407902,2.670422 3.080045,2.670422 1.65477,0 3.0368,-1.211367 3.0368,-2.934669 m -8.506762,2.013357 c 0,0.460851 0.153139,0.62274 0.673441,0.62274 h 0.31614 v 0.162025 h -2.68754 v -0.162025 h 0.315939 c 0.520302,0 0.673642,-0.161889 0.673642,-0.62274 v -4.214148 h -1.48454 c -0.341009,0 -0.49462,0.195814 -0.622822,0.946592 h -0.153272 l 0.136514,-1.381966 h 0.161922 c 0.0088,0.05121 0.04292,0.08553 0.09394,0.102425 0.05129,0.01729 0.111034,0.02541 0.170572,0.02541 h 4.103418 c 0.119549,0 0.247481,-0.02541 0.264781,-0.127835 h 0.161787 L 48.11249,17.7189 H 47.958746 C 47.83095,16.968122 47.67734,16.772308 47.336263,16.772308 h -1.484407 v 4.214148 m -6.54341,-0.511936 c 0.179428,0.759354 0.77623,1.202782 1.441763,1.202782 0.571661,0 1.17698,-0.332488 1.17698,-1.00638 0,-1.228721 -2.738157,-1.603982 -2.738157,-3.096753 0,-0.708405 0.648366,-1.237236 1.518601,-1.237236 0.716218,0 0.861582,0.21323 1.160154,0.21323 0.06805,0 0.102181,-0.01702 0.153543,-0.08539 h 0.136443 l 0.144893,1.083592 h -0.144893 c -0.238963,-0.614164 -0.784809,-1.006509 -1.373638,-1.006509 -0.563149,0 -0.955523,0.323913 -0.955523,0.801788 0,1.211434 2.738564,1.535806 2.738564,3.105139 0,0.836112 -0.742372,1.458989 -1.740265,1.458989 -0.469411,0 -1.06608,-0.230465 -1.185629,-0.230465 -0.07691,0 -0.136785,0.0425 -0.170711,0.09392 h -0.145095 l -0.178887,-1.2967 h 0.161855 m -0.580043,-3.847471 v -0.162281 h -2.073097 v 0.162281 c 0.477659,0.02541 0.639987,0.153313 0.639987,0.614165 v 3.634233 c 0,0.55437 -0.105493,0.698836 -0.593897,0.730716 -0.650665,-0.03426 -0.926934,-0.289463 -1.39378,-0.755991 L 34.63431,20.176152 c -0.400482,-0.400995 -0.656476,-0.640163 -0.972145,-0.887385 0.699526,-0.204594 1.134136,-0.742264 1.134136,-1.381973 0,-0.87016 -0.707838,-1.518641 -2.286315,-1.518641 -0.554835,0 -0.725476,0.0084 -1.075137,0.0258 -0.349662,0.01683 -0.870234,0.05082 -1.074867,0.05082 v 0.162281 h 0.187738 c 0.494757,0 0.639784,0.153313 0.639784,0.682603 v 3.591468 c 0,0.571792 -0.179291,0.708075 -0.682427,0.708075 h -0.145095 v 0.162024 h 2.414717 v -0.162026 h -0.196456 c -0.477997,0 -0.682631,-0.128099 -0.682631,-0.639967 V 19.52747 c 0.136581,0.0085 0.247412,0.01742 0.435151,0.01742 0.230584,0 0.367097,-0.0089 0.580584,-0.01742 0.204903,0.136614 0.503677,0.383836 0.878883,0.759286 l 0.562811,0.563419 c 0.737572,0.73804 1.052227,0.971334 2.441411,0.921047 h 1.933949 v -0.162024 c -0.588625,0 -0.725004,-0.170601 -0.725004,-0.67396 V 17.31817 c 0,-0.571595 0.18774,-0.691118 0.725004,-0.691118 z m -6.303634,2.755492 c -0.196524,0 -0.324521,0.0084 -0.529155,-0.01696 V 16.56727 c 0.153476,-0.0171 0.264443,-0.0171 0.426636,-0.0171 1.314575,0 1.672346,0.614563 1.672346,1.40764 0,1.023743 -0.622281,1.424738 -1.569827,1.424738 m -5.562547,-2.80671 c 0.213352,-0.0086 0.563351,-0.02567 0.750819,-0.02567 1.049322,0 1.407566,0.546057 1.407566,1.143326 0,0.665445 -0.409538,0.989486 -1.228343,0.989486 H 26.86222 Z m -0.70777,4.333597 c 0,0.537872 -0.136648,0.699761 -0.835903,0.699761 h -0.196659 v 0.162025 h 3.122352 c 1.373708,0 1.842649,-0.946924 1.842649,-1.620877 0,-0.665249 -0.468941,-1.185828 -1.270648,-1.424671 v -0.01709 c 0.571528,-0.102492 0.972213,-0.554369 0.972213,-1.040502 0,-0.409707 -0.170506,-0.699958 -0.52037,-0.946918 -0.307153,-0.222015 -0.964035,-0.333016 -1.714584,-0.333016 -0.162328,0 -0.810492,0.0084 -1.279973,0.0258 -0.247142,0.0085 -0.83597,0.0427 -1.0748,0.05082 v 0.16228 h 0.298638 c 0.597073,0 0.657085,0.255874 0.657085,0.742 v 3.540385 z M 26.86222,18.845 h 0.921324 c 0.998231,0 1.501638,0.674284 1.501638,1.331146 0,0.665181 -0.324251,1.364678 -1.450344,1.364678 -0.716758,0 -0.972618,-0.230462 -0.972618,-0.878612 V 18.845" /><path
         style="fill:#c5000c;fill-rule:nonzero;stroke:none;stroke-width:0.282222"
         inkscape:connector-curvature="0"
         id="path3038"
         d="m 15.721312,7.5626804 c 0,0 0,6.6459966 0,6.7539226 -2.717208,-1.069866 -3.84918,1.004773 -6.7425015,0 0,0.03048 6.1e-5,-6.7539226 6.1e-5,-6.7539226 H 10.35543 v 0.729125 h 0.789448 l -9.5e-5,-0.729125 h 0.776412 l 1.01e-4,0.729193 0.782717,-6.8e-5 3.4e-5,-0.729125 h 0.782852 v 0.729125 l 0.851358,6.8e-5 v -0.729193 z m -4.996926,1.963482 c 0.309883,0.01636 0.686529,-0.176249 0.711108,-0.192401 0,0 -0.130538,0.329455 0.163079,0.309856 0.318696,-0.02129 0.685543,-0.18463 0.737181,-0.208756 v -0.424067 c -0.02841,0.02081 -0.338991,0.240383 -0.691477,0.319723 -0.128761,0.02892 -0.08484,-0.08488 -0.0718,-0.150029 0.01306,-0.06528 0.02184,-0.118603 -0.208749,-0.02291 -0.942693,0.391426 -0.991662,0.12401 -0.991662,0.0913 -0.0391,0.04575 -0.0225,0.257549 0.352324,0.277282 z m 2.753079,0.0196 c 0,0 -1.226518,0.176114 -1.578774,0.208756 -0.243033,0.143541 -0.521931,0.5447656 -0.521931,0.5447656 0,0 -0.287021,0.04237 -0.861124,0.146784 -0.39915,0.260388 -0.6393715,0.867666 -0.143574,1.363504 -0.156544,-0.03264 -0.156544,-0.03264 -0.3848575,-0.07177 -0.489302,0.313168 -0.260956,0.89382 0.7567455,0.691551 -0.287021,-0.0098 -0.430595,-0.150028 -0.427324,-0.332766 -0.0065,-0.198957 0.381721,-0.446909 0.854656,-0.319655 -0.450201,-0.851379 0.0489,-1.187389 0.0489,-1.187389 0,0 -0.264186,0.703039 0.313188,1.27869 0.05217,-0.08475 0.225043,-0.3229 0.711075,-0.332699 0.484288,-0.0097 0.788495,0.228152 0.795888,0.502326 0.0065,0.241465 -0.300084,0.495837 -0.698045,0.495837 l -0.0065,-0.576731 c 0,0 -0.129647,0.04663 -0.166309,0.09779 5.93e-4,0.02656 -0.0033,0.485498 -0.0033,0.485498 -0.156604,0 -0.47626,-0.06528 -0.645873,-0.336078 -0.130505,-0.01298 -0.857887,-0.120631 -0.857887,-0.120631 l 0.03914,0.192469 c 0,0 0.254447,0.04244 0.303349,0.296813 0.05923,0.30783 0.234882,0.590451 0.391459,0.704594 0.303322,-0.03589 0.805688,-0.417512 1.728816,-0.404469 -0.848121,0.117387 -1.709244,1.024182 -2.948825,0.678508 1.970227,0.671953 2.172475,-0.822049 4.638499,-0.352297 -0.384891,-0.23491 -0.958994,-0.306612 -0.958994,-0.306612 0,0 0.306586,-0.332766 0.319656,-0.84158 0.03914,-0.0025 0.0913,-0.0066 0.189212,-0.01629 0.0326,-0.163139 0.05544,-0.328711 0.05544,-0.328711 0,0 -0.538204,-8.19e-4 -0.989986,-8.19e-4 -1.099304,-1.112307 0.04729,-2.1593976 0.04729,-2.1593976 z m 0.469724,1.6701826 c -0.0522,-0.280594 -0.02613,-0.835092 0.247886,-1.3831006 -1.0112,0.7632526 -1.024236,1.3830336 -1.024236,1.3830336 0,0 0.195713,-0.150029 0.77635,6.7e-5" /><path
         style="fill:#c5000c;fill-rule:nonzero;stroke:none;stroke-width:0.282222"
         inkscape:connector-curvature="0"
         id="path3040"
         d="m 23.16442,15.011398 c 0,-0.107859 -1.35e-4,6.761601 0,6.761998 -3.738213,0.910092 -3.846003,-1.076401 -6.742569,0 3.38e-4,0.08777 -0.0012,-6.762607 0,-6.761998 2.661723,-1.115551 3.699151,0.998122 6.742569,0 z m -1.501502,0.762449 c -0.601804,0.210398 -0.513071,0.859076 -0.350608,1.109076 0.212,0.326218 0.391426,0.332685 0.52679,0.715995 0.10556,0.298962 -0.08319,0.454979 -0.269105,0.523485 0.317966,0.195875 0.645866,-0.0065 0.763253,-0.202282 0.216258,-0.288203 -0.02872,-0.662403 0.202268,-0.857758 0.06177,-0.05227 0.166316,-0.08811 0.306613,-0.09464 -0.140297,-0.199044 -0.469752,-0.176209 -0.601804,0.0098 -0.09299,-0.215352 -0.353986,-0.403503 -0.259374,-0.737249 0.06197,-0.218515 0.407781,-0.300152 0.538211,-0.120773 0.07143,0.09827 0.08157,0.290386 -0.127186,0.388392 0.130498,-0.0098 0.378383,-0.234951 0.208756,-0.541637 -0.119077,-0.215346 -0.319656,-0.231585 -0.482728,-0.231585 -0.29688,0 -0.789407,0.339355 -0.474617,1.071589 -0.181048,-0.161429 -0.474618,-0.724178 0.01953,-1.032386 z m -3.804239,1.311223 c 0,0 -0.09542,0.117468 0.01223,0.146907 0.0025,0.03419 0.01595,0.101498 0.0294,0.136877 0.01797,0.04739 0.04893,0.03194 0.08319,-0.0074 0.0342,-0.03907 0.08934,-0.11338 0.129687,-0.156408 0.03663,-0.03907 0.164356,-0.02521 0.112522,0.05372 -0.03433,0.05214 -0.06123,0.06613 -0.105223,0.07589 -0.0348,0.0077 -0.04528,-0.02204 -0.08319,0.02944 -0.03987,0.05398 -0.08252,0.09173 -0.01223,0.09173 0.0367,0 0.106439,0.03419 0.152934,0.02679 0.04372,-0.0069 0.04866,-0.03538 0.05339,-0.07464 0.0049,-0.04078 -0.003,-0.06435 0.04244,-0.08969 0.05866,-0.0326 0.145095,-0.110873 0.171248,-0.138587 0.03001,-0.03181 0.06846,-0.02442 0.107589,-0.02442 0.0392,0 0.228354,0.02284 0.340875,-0.145981 0.07941,-0.119056 0.08813,-0.281344 0.05873,-0.428122 0.05386,0.05379 0.126173,0.222935 0.08806,0.381593 -0.06778,0.282399 -0.206796,0.298239 -0.347364,0.327806 -0.05873,0.08316 -0.208756,0.296854 -0.288636,0.685178 -0.03433,0.0227 -0.318101,0.296719 -0.08083,0.746156 -0.06116,0.02033 -0.241465,0.09727 -0.348175,0.1213 -0.07177,0.01637 -0.131781,0.02006 -0.160638,0.05465 -0.03264,0.0392 -0.107656,0.166443 -0.06853,0.230064 0.02778,0.04501 0.205512,0.442706 0.220177,0.565195 0.01467,0.122226 0.05893,0.151259 0.10279,0.190861 0.04886,0.04382 0.08069,0.04158 0.149218,0.09292 0.0692,0.05188 0.126781,0.145325 0.190779,0.195612 0.0686,0.05385 0.145163,0.07827 0.199025,0.07326 -0.01304,-0.198781 -0.05548,-0.394528 -0.117455,-0.45973 -0.06434,-0.06771 -0.145163,0.0293 -0.164694,0.03418 -0.0196,0.0049 -0.04683,-0.01386 -0.05873,-0.0685 -0.01223,-0.05623 0.03913,-0.102695 -0.0098,-0.176081 -0.0911,-0.136614 -0.177872,-0.290123 -0.188347,-0.310843 -0.06366,-0.124605 0.04427,-0.157733 0.07089,-0.151529 0.06366,0.01465 0.445288,0.06599 0.504015,0.07088 0.05866,0.0049 0.09117,0.01479 0.117388,-0.01465 0.08076,-0.09055 0.127254,-0.156544 0.173749,-0.249595 0.08562,0.06362 0.0269,0.185974 0.0024,0.331036 0.02446,0.02138 0.57734,0.300152 1.337417,0.09794 0.317426,-0.08434 0.28127,-0.01782 0.311479,0.04078 0.184291,0.357177 0.314722,0.495507 0.533345,0.670398 0.06522,0.05213 0.110832,0.136871 0.140229,0.185711 0.0294,0.04911 0.03676,0.136087 0.01311,0.192578 -0.0294,0.07009 -0.199227,0.374598 -0.228354,0.417491 -0.05548,0.0817 -0.127863,0.150076 -0.189226,0.182684 -0.192469,0.102824 -0.240518,0.195084 -0.261739,0.266754 0.04399,0 0.494148,0 0.494148,0 0,0 0.01149,-0.02561 0.0057,-0.08738 -0.0081,-0.08633 0.07015,-0.100979 0.09461,-0.105858 0.02446,-0.0049 0.06853,0.01452 0.107656,-0.07827 0.07359,-0.174891 0.360407,-0.662214 0.384939,-0.706297 0.02439,-0.04409 0.114075,-0.161821 0.02608,-0.213568 -0.166383,-0.09794 -0.264037,-0.258839 -0.296813,-0.438874 -0.01311,-0.07167 -0.0053,-0.189941 0.156584,-0.391358 0.345674,-0.430562 0.08806,-1.317819 -0.681752,-1.301451 -0.436637,0.0092 -0.679454,-0.02799 -0.963968,-0.08487 -0.103938,-0.02086 -0.121712,-0.07682 -0.09948,-0.140311 0.02284,-0.0652 0.04487,-0.194821 0.04568,-0.247878 -0.07501,-0.06851 -0.189157,-0.110879 -0.244641,-0.13041 -0.05967,-0.02106 -0.08975,-0.06864 -0.02933,-0.07345 0.06028,-0.0048 0.288636,0.0196 0.288636,0.0196 0,0 0.0081,-0.122361 -0.02446,-0.301733 -0.09786,-0.04251 -0.221866,-0.07841 -0.352229,-0.09464 -0.0344,-0.0042 -0.06454,-0.04297 0.02277,-0.05544 0.114211,-0.0163 0.218556,0.0017 0.300125,-0.0033 0.0049,-0.0097 -0.03913,-0.237984 -0.119888,-0.330313 -0.05623,-0.01696 -0.08603,-0.02482 -0.281337,-0.04798 -0.06853,-0.0081 -0.07177,-0.02779 -0.02609,-0.0425 0.05305,-0.0169 0.141041,-0.03419 0.251197,-0.02693 -0.04244,-0.05861 -0.326279,-0.576414 -0.91504,-0.420661 0.06609,0.08065 0.09786,0.118069 0.117455,0.173634 0.01757,0.04963 -0.03494,0.06547 -0.08319,0.01479 -0.185914,-0.195815 -0.283771,-0.190929 -0.403659,-0.213034 0.07826,0.07596 0.11259,0.151853 0.139419,0.227618 -0.134485,0.09543 -0.325332,0.322859 -0.352229,0.367009 -0.05123,0.08375 0.0196,0.128822 0.0196,0.128822 l -0.315668,0.38483 z m 0.276471,1.288516 c -0.274038,-0.111008 -0.335334,-0.185191 -0.38656,-0.2071 -0.04562,-0.0196 -0.234301,0.06059 -0.265861,0.141763 -0.08475,0.218583 -0.273971,0.575752 -0.30168,0.626309 -0.01493,0.02719 -0.03095,0.05886 -0.02778,0.09463 0.0033,0.0359 0.01385,0.176216 0.01068,0.208817 -0.0033,0.03274 0.0016,0.0751 0.0146,0.107703 0.01304,0.03261 0.03021,0.172783 0.101979,0.312958 0.159828,-0.159713 0.183278,-0.395454 0.172871,-0.348857 -2.7e-4,0.0012 0.05062,-0.08633 -0.07664,-0.125659 -0.03622,-0.01122 -0.03088,-0.105331 0.0081,-0.117475 0.04737,-0.01452 0.07184,-0.02771 0.09468,-0.112326 0.02277,-0.085 0.108872,-0.389777 0.136985,-0.448639 0.0043,-0.009 0.01223,-0.02429 0.02805,-0.03168 0.02439,-0.01122 0.05366,-0.01914 0.07799,-0.0231 0.01196,-0.002 0.03494,0.01109 0.04197,0.01821 0.04345,0.04409 0.269511,0.227293 0.269511,0.227293 0,0 0.1011,-0.0098 0.163071,-0.03577 -0.03913,-0.06203 -0.05541,-0.212115 -0.06197,-0.287082 z m 2.505208,1.787578 c -0.107656,0.08804 -0.440422,0.25594 -0.523614,0.295137 -0.08312,0.0392 -0.109818,0.06296 -0.171181,0.184265 -0.07508,0.148623 -0.146852,0.417755 -0.127254,0.437157 0.205445,-0.0326 0.352297,-0.205377 0.352297,-0.205377 0,7e-6 0.0032,-0.04237 -0.04244,-0.11444 -0.03778,-0.0594 0.03589,-0.123679 0.08157,-0.08632 0.0348,0.02864 0.08319,0.03432 0.112522,0.0098 0.0294,-0.02442 0.67033,-0.432143 0.699728,-0.479395 -0.130498,-0.128958 -0.229977,-0.259367 -0.229977,-0.259367 0,0 -0.04406,0.130409 -0.15165,0.218575 z m -2.326052,-3.411753 c 0,0 -0.03217,-0.01598 0.02913,-0.06725 0.0075,-0.0063 0.01933,0.0077 0.05501,0.0081 0.04798,5.93e-4 0.07312,-0.01598 0.112927,-0.06395 0.06015,-0.0728 -0.06528,-0.100648 -0.106034,-0.06574 -0.04474,0.03822 -0.07677,0.07801 -0.115157,0.112988 0,0 -0.06447,0.05735 0.02413,0.07583" /><path
         style="fill:#c5000c;fill-rule:nonzero;stroke:none;stroke-width:0.282222"
         inkscape:connector-curvature="0"
         id="path3042"
         d="m 15.721379,15.011398 c 0.0012,-6.21e-4 -3.38e-4,6.849772 0,6.761998 -2.89662,-1.076401 -3.004397,0.910092 -6.7425685,0 9.4e-5,-3.95e-4 0,-6.869857 0,-6.761998 3.0433965,0.998122 4.0807905,-1.115551 6.7425685,0 z m -4.596498,4.442549 c -0.02366,0.287217 -0.188353,0.329455 -0.188353,0.329455 -0.287346,-0.132126 -0.441517,0.229666 -0.200363,0.336253 0.305626,0.135026 0.492695,-0.260029 0.510847,-0.332955 0.05151,-0.207093 0.05636,-0.353473 0.03332,-0.689794 -0.01963,-0.286689 0.05105,-0.329981 0.09817,-0.337834 0.04715,-0.0079 0.145386,-0.01168 0.243527,0.286886 0.09824,0.298367 0.310113,0.341666 0.310113,0.341666 0,0 -0.306782,-0.499264 0.119948,-0.96019 0.198423,-0.214284 0.603014,-0.33605 0.528108,-0.636074 0,0 -0.06257,0.107575 -0.18436,0.138993 -0.121766,0.03141 -0.35744,0.06679 -0.35744,0.06679 0,0 0.565622,-0.267159 0.667756,-0.573576 0,0 0.176737,0.294671 -0.05897,0.726686 0,0 0.224488,-0.08032 0.466001,0.02878 0.615583,0.272761 0.550213,1.149658 -0.228713,1.358732 -1.108542,0.297516 -0.70606,1.155011 -0.07118,1.207609 -0.06811,-0.04316 -0.08358,-0.301801 0.02788,-0.45525 0.05564,-0.04962 0.155192,-0.149744 0.218352,0.06053 0.111467,0.371692 0.436698,0.401847 0.587599,0.355453 -0.03947,-0.03332 -0.113745,-0.146447 -0.104507,-0.211521 0.01861,-0.130011 0.180994,0.005 0.240033,0.02172 0.436664,0.123875 0.668938,0.01565 0.693686,-0.04956 -0.09751,-0.02019 -0.08052,-0.0091 -0.142419,-0.02482 -0.05775,-0.01438 -0.16981,-0.09431 0.04026,-0.142419 0.385647,-0.0883 0.597762,-0.486126 0.343842,-0.792685 -0.242438,-0.292826 -0.548104,-0.247946 -0.647326,-0.207688 0.418087,0.08989 0.439138,0.426466 0.226036,0.597796 -0.185745,0.139385 -0.647197,0.195085 -0.805187,-0.114569 -0.09989,0.07207 -0.134701,0.18736 -0.117678,0.331368 -0.04184,-0.01564 -0.216893,-0.264781 0.0433,-0.470685 1.206284,-0.777641 1.011592,-2.084506 -0.0093,-2.622378 l -0.01267,-0.0055 c -0.926163,-0.532061 -1.736439,-0.04646 -1.736439,-0.04646 0.572623,-0.573508 1.562203,-0.232307 1.704562,-0.161165 0,0 -0.113812,-0.09906 -0.174399,-0.189935 -0.07847,-0.117671 -0.0755,-0.230065 -0.0755,-0.230065 -0.392872,0.219306 -0.494216,-0.117603 -0.494216,-0.117603 0,0 -0.340207,0.306619 -0.560999,0.05721 -0.19301,-0.218245 0.119482,-0.51424 0.119482,-0.51424 -1.992731,0.654091 -1.615031,1.779265 -1.615031,1.779265 0,0 -0.288602,0.265104 -0.353182,0.903821 -0.07335,0.725564 0.288075,1.241662 0.739628,1.099899 0.103411,-0.03247 0.154793,-0.08171 0.174722,-0.136283 l 0.0011,-0.0056 z m -0.09421,-0.431811 c 0.09797,-0.0066 0.110379,-0.126518 0.09263,-0.189611 -0.02086,-0.07445 -0.145258,-0.08369 -0.175189,0.01109 -0.02963,0.09384 -0.0037,0.185117 -0.0037,0.185117 0.02459,0.09048 0.12645,0.116353 0.135195,0.107176 -0.05659,-0.05062 -0.04124,-0.07986 -0.0489,-0.113773 z m 0.400995,-0.153118 c 0,0 -0.118333,0.07735 0.02983,0.40232 0.148096,0.324765 0.331962,0.627363 0.01194,0.984269 0.181494,0.0021 0.577671,-0.237194 0.153772,-0.950418 -0.09747,-0.16426 -0.202741,-0.278039 -0.195544,-0.436171" /></g><path
       id="rect7534"
       style="fill:#ab1f2d;stroke-width:0.264583;stroke-linecap:round;stroke-dasharray:0.264583, 0.79375"
       d="m 0,247.0609 h 196.00742 l -9.45042,42 H 0 Z"
       sodipodi:nodetypes="ccccc" /><text
       xml:space="preserve"
       style="font-size:14.1111px;line-height:1.1;font-family:'TeX Gyre Heros';-inkscape-font-specification:'TeX Gyre Heros, Normal';text-align:start;text-anchor:start;fill:#ffffff;fill-opacity:1;stroke:none;stroke-width:0.264583;stroke-linecap:round;stroke-dasharray:0.264583, 0.79375"
       x="14.802444"
       y="264.01807"
       id="text3937"><tspan
         sodipodi:role="line"
         style="font-style:normal;font-variant:normal;font-weight:bold;font-stretch:normal;font-size:14.1111px;font-family:'TeX Gyre Heros';-inkscape-font-specification:'TeX Gyre Heros Bold';text-align:start;text-anchor:start;fill:#ffffff;fill-opacity:1;stroke:none;stroke-width:0.264583"
         x="14.802444"
         y="264.01807"
         id="tspan5295">The 64th British Applied</tspan><tspan
         sodipodi:role="line"
         style="font-style:normal;font-variant:normal;font-weight:bold;font-stretch:normal;font-size:14.1111px;font-family:'TeX Gyre Heros';-inkscape-font-specification:'TeX Gyre Heros Bold';text-align:start;text-anchor:start;fill:#ffffff;fill-opacity:1;stroke:none;stroke-width:0.264583"
         x="14.802444"
         y="279.54028"
         id="tspan5297">Mathematics Colloquium</tspan></text><g
       inkscape:label="Layer 1"
       id="layer1-2"
       transform="matrix(1.0072471,0,0,1.0072471,-48.062093,-148.94771)"><path
         d="m 57.644339,177.66019 h 40.437512 v -19.8561 H 57.644339 Z"
         style="fill:#ed1c24;fill-opacity:1;fill-rule:nonzero;stroke:none;stroke-width:0.352778"
         id="path16093"
         inkscape:connector-curvature="0" /><path
         d="m 57.644339,177.66019 h 40.437512 v -19.8561 H 57.644339 Z"
         style="fill:#ed1c24;fill-opacity:1;fill-rule:nonzero;stroke:none;stroke-width:0.352778"
         id="path16095"
         inkscape:connector-curvature="0" /><g
         id="g26109"
         transform="translate(4.6e-4,4.0244201)"><path
           inkscape:connector-curvature="0"
           id="path16097"
           style="fill:#ffffff;fill-opacity:1;fill-rule:nonzero;stroke:none;stroke-width:0.352778"
           d="m 81.363709,170.60146 h 0.19826 v -10.17799 h -0.19826 z" /><path
           d="m 60.163879,163.20632 v -2.78306 h 1.342319 v 2.72415 c 0,0.66145 0.163689,0.98213 0.733425,0.98213 0.556684,0 0.733425,-0.30127 0.733425,-1.00189 v -2.70439 h 1.355373 v 2.76366 c 0,1.36172 -0.798689,1.99707 -2.088798,1.99707 -1.322563,0 -2.075744,-0.66781 -2.075744,-1.97767"
           style="fill:#ffffff;fill-opacity:1;fill-rule:nonzero;stroke:none;stroke-width:0.352778"
           id="path16109"
           inkscape:connector-curvature="0" /><path
           d="m 64.531515,160.42336 h 1.355372 l 0.602545,2.92065 0.62865,-2.92065 h 1.191683 l 0.681214,2.94675 0.635,-2.94675 h 1.244247 l -1.093611,4.68207 h -1.401233 l -0.720373,-2.97286 -0.726722,2.97286 h -1.309864 z"
           style="fill:#ffffff;fill-opacity:1;fill-rule:nonzero;stroke:none;stroke-width:0.352778"
           id="path16113"
           inkscape:connector-curvature="0" /><path
           d="m 60.261281,165.92035 h 2.088797 c 1.106664,0 1.578328,0.49777 1.578328,1.22449 v 0.0265 c 0,0.52352 -0.268817,0.87066 -0.792339,1.00824 0.576086,0.0981 0.936272,0.4452 0.936272,1.09326 v 0.0265 c 0,0.8382 -0.54363,1.30316 -1.702505,1.30316 h -2.108553 z m 1.820333,1.85984 c 0.4191,0 0.576086,-0.14428 0.576086,-0.47801 v -0.0265 c 0,-0.32067 -0.170038,-0.46461 -0.576086,-0.46461 h -0.510822 v 0.96908 z m 0.04586,1.92511 c 0.42545,0 0.621948,-0.19649 0.621948,-0.54363 v -0.0261 c 0,-0.35349 -0.189795,-0.53693 -0.661106,-0.53693 h -0.517525 v 1.10666 z"
           style="fill:#ffffff;fill-opacity:1;fill-rule:nonzero;stroke:none;stroke-width:0.352778"
           id="path16117"
           inkscape:connector-curvature="0" /><path
           d="m 64.431115,167.17761 h 1.171928 v 0.68086 c 0.216253,-0.51047 0.576439,-0.73307 1.106664,-0.72672 v 1.09361 c -0.71367,-0.0198 -1.106664,0.2032 -1.106664,0.75318 v 1.62384 h -1.171928 z"
           style="fill:#ffffff;fill-opacity:1;fill-rule:nonzero;stroke:none;stroke-width:0.352778"
           id="path16121"
           inkscape:connector-curvature="0" /><path
           d="m 67.010132,166.24779 c 0,-0.34713 0.274814,-0.60889 0.641703,-0.60889 0.366889,0 0.648405,0.26176 0.648405,0.60889 0,0.34713 -0.281516,0.60254 -0.648405,0.60254 -0.366889,0 -0.641703,-0.25541 -0.641703,-0.60254 m 0.05891,0.92992 h 1.171928 v 3.42477 h -1.171928 z"
           style="fill:#ffffff;fill-opacity:1;fill-rule:nonzero;stroke:none;stroke-width:0.352778"
           id="path16125"
           inkscape:connector-curvature="0" /><path
           d="m 68.618869,169.51529 h 1.080558 c 0.03916,0.24871 0.150636,0.38629 0.484364,0.38629 0.28822,0 0.4191,-0.11112 0.4191,-0.28152 0,-0.16368 -0.163689,-0.24235 -0.635,-0.30762 -0.916869,-0.11782 -1.303161,-0.38629 -1.303161,-1.10031 0,-0.75953 0.674511,-1.12607 1.46685,-1.12607 0.84455,0 1.434042,0.28822 1.512358,1.10667 h -1.060802 c -0.04551,-0.22931 -0.170039,-0.34079 -0.438503,-0.34079 -0.255411,0 -0.386292,0.11148 -0.386292,0.26882 0,0.16334 0.156986,0.22895 0.576086,0.28152 0.949678,0.11782 1.407936,0.36653 1.407936,1.09996 0,0.81174 -0.602544,1.17863 -1.551869,1.17863 -0.975783,0 -1.545519,-0.40605 -1.571625,-1.16558"
           style="fill:#ffffff;fill-opacity:1;fill-rule:nonzero;stroke:none;stroke-width:0.352778"
           id="path16129"
           inkscape:connector-curvature="0" /><path
           d="m 72.284054,169.50217 v -1.52576 h -0.412397 v -0.79869 h 0.412397 v -0.71402 h 1.172281 v 0.71402 h 0.674158 v 0.79869 h -0.674158 v 1.41464 c 0,0.2487 0.124177,0.35983 0.34678,0.35983 0.130881,0 0.229306,-0.0194 0.334081,-0.0589 v 0.89077 c -0.150636,0.0392 -0.373239,0.0981 -0.648406,0.0981 -0.772583,0 -1.204736,-0.37324 -1.204736,-1.17863"
           style="fill:#ffffff;fill-opacity:1;fill-rule:nonzero;stroke:none;stroke-width:0.352778"
           id="path16133"
           inkscape:connector-curvature="0" /><path
           d="m 74.332281,168.93257 v -0.0526 c 0,-1.09996 0.818444,-1.79388 1.879247,-1.79388 1.054453,0 1.866195,0.67416 1.866195,1.76142 v 0.0522 c 0,1.11337 -0.818445,1.78118 -1.872898,1.78118 -1.0541,0 -1.872544,-0.64171 -1.872544,-1.74837 m 2.553758,-0.0198 v -0.0522 c 0,-0.57644 -0.229305,-0.89711 -0.674511,-0.89711 -0.438503,0 -0.680861,0.30762 -0.680861,0.88406 v 0.0522 c 0,0.58914 0.228953,0.91017 0.680861,0.91017 0.438856,0 0.674511,-0.32738 0.674511,-0.89712"
           style="fill:#ffffff;fill-opacity:1;fill-rule:nonzero;stroke:none;stroke-width:0.352778"
           id="path16137"
           inkscape:connector-curvature="0" /><path
           inkscape:connector-curvature="0"
           id="path16139"
           style="fill:#ffffff;fill-opacity:1;fill-rule:nonzero;stroke:none;stroke-width:0.352778"
           d="m 78.475515,165.91939 h 1.165578 v 4.68278 h -1.165578 z" /><path
           d="m 72.405974,164.07073 v -0.85125 h 1.2065 0.306211 v -0.95603 h -0.306211 -1.2065 v -0.80539 h 1.899003 v -1.0347 h -3.234972 v 4.68207 h 3.339747 v -1.0347 z"
           style="fill:#ffffff;fill-opacity:1;fill-rule:nonzero;stroke:none;stroke-width:0.352778"
           id="path16143"
           inkscape:connector-curvature="0" /><path
           d="m 83.270047,161.58548 v -1.16205 h 0.434622 v 1.13559 c 0,0.31715 0.09313,0.45579 0.354542,0.45579 0.255764,0 0.367594,-0.12277 0.367594,-0.47202 v -1.11936 h 0.434623 v 1.14618 c 0,0.51964 -0.290689,0.78881 -0.805039,0.78881 -0.500945,0 -0.786342,-0.26635 -0.786342,-0.77294"
           style="fill:#ffffff;fill-opacity:1;fill-rule:nonzero;stroke:none;stroke-width:0.352778"
           id="path16147"
           inkscape:connector-curvature="0" /><path
           d="m 85.15508,160.9351 h 0.386644 v 0.22119 c 0.06914,-0.13864 0.221192,-0.25329 0.452967,-0.25329 0.274461,0 0.469195,0.16545 0.469195,0.53869 v 0.88759 h -0.386645 v -0.83185 c 0,-0.18909 -0.07444,-0.27976 -0.24518,-0.27976 -0.1651,0 -0.290337,0.10125 -0.290337,0.30657 v 0.80504 H 85.15508 Z"
           style="fill:#ffffff;fill-opacity:1;fill-rule:nonzero;stroke:none;stroke-width:0.352778"
           id="path16151"
           inkscape:connector-curvature="0" /><path
           d="m 86.72286,160.53526 c 0,-0.11994 0.09596,-0.21061 0.218369,-0.21061 0.125589,0 0.221545,0.0907 0.221545,0.21061 0,0.11994 -0.09596,0.21061 -0.221545,0.21061 -0.122413,0 -0.218369,-0.0907 -0.218369,-0.21061 m 0.02928,0.3997 h 0.383822 v 1.39417 H 86.75214 Z"
           style="fill:#ffffff;fill-opacity:1;fill-rule:nonzero;stroke:none;stroke-width:0.352778"
           id="path16155"
           inkscape:connector-curvature="0" /><path
           d="m 87.304096,160.9351 h 0.413103 l 0.333022,0.99695 0.330906,-0.99695 h 0.372886 l -0.506236,1.39418 h -0.434623 z"
           style="fill:#ffffff;fill-opacity:1;fill-rule:nonzero;stroke:none;stroke-width:0.352778"
           id="path16159"
           inkscape:connector-curvature="0" /><path
           d="m 88.757188,161.64948 v -0.0215 c 0,-0.43956 0.311856,-0.72496 0.717197,-0.72496 0.359834,0 0.67945,0.21061 0.67945,0.70909 v 0.10689 h -1.004711 c 0.01058,0.23177 0.13582,0.36512 0.346428,0.36512 0.178858,0 0.2667,-0.0773 0.290689,-0.19473 h 0.365125 c -0.04516,0.30127 -0.285397,0.46919 -0.666397,0.46919 -0.421217,0 -0.727781,-0.26387 -0.727781,-0.70908 m 1.020939,-0.16792 c -0.01341,-0.21061 -0.119945,-0.31186 -0.303742,-0.31186 -0.173566,0 -0.290689,0.11466 -0.319969,0.31186 z"
           style="fill:#ffffff;fill-opacity:1;fill-rule:nonzero;stroke:none;stroke-width:0.352778"
           id="path16163"
           inkscape:connector-curvature="0" /><path
           d="m 90.354248,160.9351 h 0.386644 v 0.2667 c 0.08784,-0.18697 0.223662,-0.2854 0.450498,-0.28787 v 0.35984 c -0.285398,-0.003 -0.450498,0.0907 -0.450498,0.35701 v 0.6985 h -0.386644 z"
           style="fill:#ffffff;fill-opacity:1;fill-rule:nonzero;stroke:none;stroke-width:0.352778"
           id="path16167"
           inkscape:connector-curvature="0" /><path
           d="m 91.261487,161.89208 h 0.359833 c 0.01588,0.12524 0.07726,0.1972 0.245181,0.1972 0.149578,0 0.218722,-0.0561 0.218722,-0.15204 0,-0.096 -0.08255,-0.13582 -0.282575,-0.1651 -0.370417,-0.0561 -0.514703,-0.16263 -0.514703,-0.43463 0,-0.29033 0.2667,-0.43462 0.552098,-0.43462 0.309033,0 0.541161,0.11218 0.575733,0.43215 h -0.354542 c -0.02152,-0.11465 -0.08537,-0.16827 -0.218722,-0.16827 -0.125236,0 -0.197203,0.0589 -0.197203,0.14429 0,0.0878 0.06668,0.12241 0.26917,0.15169 0.34925,0.0508 0.541161,0.13864 0.541161,0.43744 0,0.30092 -0.21837,0.45826 -0.586317,0.45826 -0.376061,0 -0.59443,-0.1651 -0.607836,-0.46637"
           style="fill:#ffffff;fill-opacity:1;fill-rule:nonzero;stroke:none;stroke-width:0.352778"
           id="path16171"
           inkscape:connector-curvature="0" /><path
           d="m 92.629277,160.53526 c 0,-0.11994 0.09596,-0.21061 0.218369,-0.21061 0.125589,0 0.221545,0.0907 0.221545,0.21061 0,0.11994 -0.09596,0.21061 -0.221545,0.21061 -0.122413,0 -0.218369,-0.0907 -0.218369,-0.21061 m 0.02928,0.3997 h 0.383822 v 1.39417 h -0.383822 z"
           style="fill:#ffffff;fill-opacity:1;fill-rule:nonzero;stroke:none;stroke-width:0.352778"
           id="path16175"
           inkscape:connector-curvature="0" /><path
           d="m 93.402424,161.91604 v -0.70626 h -0.178506 v -0.27446 h 0.178506 v -0.30127 h 0.383822 v 0.30127 h 0.293159 v 0.27446 h -0.293159 v 0.67169 c 0,0.11183 0.05609,0.1651 0.154517,0.1651 0.05891,0 0.101247,-0.008 0.146755,-0.0265 v 0.29845 c -0.05327,0.0187 -0.130527,0.0374 -0.234597,0.0374 -0.293158,0 -0.450497,-0.14922 -0.450497,-0.43991"
           style="fill:#ffffff;fill-opacity:1;fill-rule:nonzero;stroke:none;stroke-width:0.352778"
           id="path16179"
           inkscape:connector-curvature="0" /><path
           d="m 94.716804,162.18789 -0.554567,-1.25271 h 0.415925 l 0.338667,0.83679 0.311856,-0.83679 h 0.370416 l -0.754239,1.86866 h -0.373239 z"
           style="fill:#ffffff;fill-opacity:1;fill-rule:nonzero;stroke:none;stroke-width:0.352778"
           id="path16183"
           inkscape:connector-curvature="0" /><path
           d="m 83.166084,164.4118 v -0.0212 c 0,-0.43744 0.317147,-0.72249 0.735542,-0.72249 0.418747,0 0.733072,0.27976 0.733072,0.71438 v 0.0212 c 0,0.43991 -0.317147,0.71966 -0.735542,0.71966 -0.415925,0 -0.733072,-0.27693 -0.733072,-0.71155 m 1.077031,-0.005 v -0.0187 c 0,-0.2667 -0.125237,-0.42651 -0.341489,-0.42651 -0.213078,0 -0.341136,0.15452 -0.341136,0.42122 v 0.0212 c 0,0.2667 0.122766,0.4265 0.341136,0.4265 0.216252,0 0.341489,-0.1598 0.341489,-0.42368"
           style="fill:#ffffff;fill-opacity:1;fill-rule:nonzero;stroke:none;stroke-width:0.352778"
           id="path16187"
           inkscape:connector-curvature="0" /><path
           d="m 84.904431,163.97464 h -0.183797 v -0.27446 h 0.183797 v -0.16016 c 0,-0.32526 0.189089,-0.48754 0.498475,-0.48754 0.08255,0 0.138642,0.008 0.200025,0.0265 v 0.29069 c -0.03739,-0.0134 -0.08537,-0.024 -0.141464,-0.024 -0.122414,0 -0.173214,0.0773 -0.173214,0.18379 v 0.17075 h 0.303742 v 0.27446 h -0.303742 v 1.11972 h -0.383822 z"
           style="fill:#ffffff;fill-opacity:1;fill-rule:nonzero;stroke:none;stroke-width:0.352778"
           id="path16191"
           inkscape:connector-curvature="0" /><path
           d="m 86.373469,164.681 v -0.70626 h -0.178506 v -0.27446 h 0.178506 v -0.30163 h 0.383822 v 0.30163 h 0.293159 v 0.27446 h -0.293159 v 0.67169 c 0,0.11183 0.05574,0.1651 0.154517,0.1651 0.05891,0 0.101247,-0.008 0.146755,-0.0265 v 0.29845 c -0.05327,0.0187 -0.130527,0.0374 -0.234597,0.0374 -0.293158,0 -0.450497,-0.14922 -0.450497,-0.43991"
           style="fill:#ffffff;fill-opacity:1;fill-rule:nonzero;stroke:none;stroke-width:0.352778"
           id="path16195"
           inkscape:connector-curvature="0" /><path
           d="m 87.266667,163.06831 h 0.386644 v 0.85302 c 0.06914,-0.13865 0.221192,-0.2533 0.452967,-0.2533 0.274814,0 0.469195,0.16545 0.469195,0.53869 v 0.88759 h -0.386645 v -0.83185 c 0,-0.18909 -0.07444,-0.27975 -0.24518,-0.27975 -0.1651,0 -0.290337,0.10125 -0.290337,0.30656 v 0.80504 h -0.386644 z"
           style="fill:#ffffff;fill-opacity:1;fill-rule:nonzero;stroke:none;stroke-width:0.352778"
           id="path16199"
           inkscape:connector-curvature="0" /><path
           d="m 88.767771,164.41444 v -0.0212 c 0,-0.43991 0.311856,-0.72531 0.717197,-0.72531 0.359834,0 0.67945,0.21061 0.67945,0.70909 v 0.10689 h -1.004711 c 0.01058,0.23177 0.13582,0.36512 0.346428,0.36512 0.178858,0 0.2667,-0.0773 0.290689,-0.19473 h 0.365125 c -0.04516,0.30127 -0.285397,0.46919 -0.666397,0.46919 -0.421217,0 -0.727781,-0.26387 -0.727781,-0.70908 m 1.020939,-0.16792 c -0.01341,-0.21061 -0.119945,-0.31186 -0.303742,-0.31186 -0.173214,0 -0.290689,0.11466 -0.319969,0.31186 z"
           style="fill:#ffffff;fill-opacity:1;fill-rule:nonzero;stroke:none;stroke-width:0.352778"
           id="path16203"
           inkscape:connector-curvature="0" /><path
           d="m 83.136768,165.93054 h 0.437092 l 0.29845,1.31692 0.325261,-1.31692 h 0.367947 l 0.338667,1.32468 0.309033,-1.32468 h 0.40005 l -0.463903,1.90606 h -0.439914 l -0.343958,-1.31692 -0.348897,1.31692 h -0.415925 z"
           style="fill:#ffffff;fill-opacity:1;fill-rule:nonzero;stroke:none;stroke-width:0.352778"
           id="path16207"
           inkscape:connector-curvature="0" /><path
           d="m 85.541583,167.15673 v -0.0212 c 0,-0.43991 0.311856,-0.72531 0.717197,-0.72531 0.359834,0 0.67945,0.21061 0.67945,0.70909 v 0.10689 h -1.004711 c 0.01058,0.23177 0.13582,0.36512 0.346428,0.36512 0.178858,0 0.2667,-0.0773 0.290689,-0.19473 h 0.365125 c -0.04516,0.30127 -0.285397,0.46919 -0.666397,0.46919 -0.421217,0 -0.727781,-0.26387 -0.727781,-0.70908 m 1.020939,-0.16792 c -0.01341,-0.21061 -0.119945,-0.31186 -0.303742,-0.31186 -0.173566,0 -0.290689,0.11466 -0.319969,0.31186 z"
           style="fill:#ffffff;fill-opacity:1;fill-rule:nonzero;stroke:none;stroke-width:0.352778"
           id="path16211"
           inkscape:connector-curvature="0" /><path
           d="m 87.050661,167.3993 h 0.359833 c 0.01587,0.12524 0.07726,0.1972 0.245181,0.1972 0.149225,0 0.218722,-0.0561 0.218722,-0.15204 0,-0.096 -0.08255,-0.13582 -0.282575,-0.1651 -0.370417,-0.0561 -0.514703,-0.16263 -0.514703,-0.43463 0,-0.29033 0.2667,-0.43462 0.552098,-0.43462 0.309033,0 0.540808,0.11218 0.575733,0.43215 h -0.354542 c -0.02152,-0.11465 -0.08537,-0.16827 -0.218722,-0.16827 -0.125236,0 -0.197203,0.0589 -0.197203,0.14429 0,0.0878 0.06668,0.12241 0.26917,0.15169 0.34925,0.0508 0.541161,0.13864 0.541161,0.43744 0,0.30092 -0.21837,0.45826 -0.586317,0.45826 -0.376061,0 -0.59443,-0.1651 -0.607836,-0.46637"
           style="fill:#ffffff;fill-opacity:1;fill-rule:nonzero;stroke:none;stroke-width:0.352778"
           id="path16215"
           inkscape:connector-curvature="0" /><path
           d="m 88.495709,167.42325 v -0.70626 h -0.178506 v -0.27446 h 0.178506 v -0.30163 h 0.383822 v 0.30163 h 0.293159 v 0.27446 h -0.293159 v 0.67169 c 0,0.11183 0.05609,0.1651 0.154517,0.1651 0.05891,0 0.101247,-0.008 0.146755,-0.0265 v 0.29845 c -0.05327,0.0187 -0.130527,0.0374 -0.234597,0.0374 -0.293158,0 -0.450497,-0.14922 -0.450497,-0.43991"
           style="fill:#ffffff;fill-opacity:1;fill-rule:nonzero;stroke:none;stroke-width:0.352778"
           id="path16219"
           inkscape:connector-curvature="0" /><path
           d="m 89.773788,167.15404 v -0.0212 c 0,-0.43744 0.317147,-0.72249 0.735542,-0.72249 0.418747,0 0.733072,0.27976 0.733072,0.71438 v 0.0212 c 0,0.43991 -0.317147,0.71966 -0.735542,0.71966 -0.415925,0 -0.733072,-0.27693 -0.733072,-0.71155 m 1.077031,-0.005 v -0.0187 c 0,-0.2667 -0.125237,-0.42651 -0.341489,-0.42651 -0.213078,0 -0.341136,0.15452 -0.341136,0.42122 v 0.0212 c 0,0.2667 0.122766,0.4265 0.341136,0.4265 0.216252,0 0.341489,-0.1598 0.341489,-0.42368"
           style="fill:#ffffff;fill-opacity:1;fill-rule:nonzero;stroke:none;stroke-width:0.352778"
           id="path16223"
           inkscape:connector-curvature="0" /><path
           d="m 91.512171,166.71688 h -0.183797 v -0.27446 h 0.183797 v -0.16016 c 0,-0.32491 0.189089,-0.48754 0.498475,-0.48754 0.08255,0 0.138642,0.008 0.200025,0.0265 v 0.29069 c -0.03739,-0.0134 -0.08537,-0.024 -0.141464,-0.024 -0.122414,0 -0.173214,0.0773 -0.173214,0.18379 v 0.17075 h 0.303742 v 0.27446 h -0.303742 v 1.11972 h -0.383822 z"
           style="fill:#ffffff;fill-opacity:1;fill-rule:nonzero;stroke:none;stroke-width:0.352778"
           id="path16227"
           inkscape:connector-curvature="0" /><path
           d="m 83.286028,168.69551 h 1.242131 v 0.33584 h -0.8128 v 0.44521 h 0.650169 v 0.31432 h -0.650169 v 0.47484 h 0.855486 v 0.33585 h -1.284817 z"
           style="fill:#ffffff;fill-opacity:1;fill-rule:nonzero;stroke:none;stroke-width:0.352778"
           id="path16231"
           inkscape:connector-curvature="0" /><path
           d="m 84.784452,169.20732 h 0.386644 v 0.22119 c 0.06914,-0.13864 0.221192,-0.25329 0.452967,-0.25329 0.274814,0 0.469195,0.16545 0.469195,0.53869 v 0.88759 h -0.386645 v -0.83185 c 0,-0.18909 -0.07444,-0.27976 -0.24518,-0.27976 -0.1651,0 -0.290337,0.10125 -0.290337,0.30657 v 0.80504 h -0.386644 z"
           style="fill:#ffffff;fill-opacity:1;fill-rule:nonzero;stroke:none;stroke-width:0.352778"
           id="path16235"
           inkscape:connector-curvature="0" /><path
           d="m 86.29621,170.6307 h 0.383822 c 0.02399,0.12277 0.111831,0.20249 0.309386,0.20249 0.234245,0 0.35172,-0.12241 0.35172,-0.34113 v -0.21061 c -0.07726,0.13582 -0.242711,0.25859 -0.447675,0.25859 -0.338667,0 -0.607836,-0.2533 -0.607836,-0.6664 v -0.0187 c 0,-0.3997 0.266347,-0.67945 0.612775,-0.67945 0.226836,0 0.362655,0.0984 0.442736,0.23989 v -0.20814 h 0.383822 v 1.28482 c -0.0028,0.4131 -0.277283,0.62371 -0.735542,0.62371 -0.45085,0 -0.655814,-0.1972 -0.693208,-0.48507 m 1.055511,-0.76235 v -0.0187 c 0,-0.23742 -0.125236,-0.381 -0.335844,-0.381 -0.2159,0 -0.335845,0.15452 -0.335845,0.38382 v 0.0212 c 0,0.23213 0.13582,0.37606 0.328084,0.37606 0.202494,0 0.343605,-0.14393 0.343605,-0.38135"
           style="fill:#ffffff;fill-opacity:1;fill-rule:nonzero;stroke:none;stroke-width:0.352778"
           id="path16239"
           inkscape:connector-curvature="0" /><path
           inkscape:connector-curvature="0"
           id="path16241"
           style="fill:#ffffff;fill-opacity:1;fill-rule:nonzero;stroke:none;stroke-width:0.352778"
           d="m 88.023798,168.57546 h 0.383822 v 2.026 h -0.383822 z" /><path
           d="m 88.615795,170.21492 c 0,-0.32526 0.29845,-0.44803 0.724958,-0.44803 h 0.157339 v -0.0557 c 0,-0.16545 -0.0508,-0.25611 -0.226483,-0.25611 -0.152047,0 -0.221192,0.0773 -0.23742,0.19755 h -0.365125 c 0.02399,-0.33055 0.285398,-0.47731 0.626534,-0.47731 0.341136,0 0.583847,0.13865 0.583847,0.51718 v 0.9091 h -0.376061 v -0.16827 c -0.07973,0.11218 -0.202495,0.19755 -0.421217,0.19755 -0.252941,0 -0.466372,-0.12276 -0.466372,-0.41592 m 0.882297,-0.10125 v -0.11747 h -0.149225 c -0.224014,0 -0.354541,0.048 -0.354541,0.19755 0,0.1009 0.06138,0.16757 0.202494,0.16757 0.170744,0 0.301272,-0.0931 0.301272,-0.24765"
           style="fill:#ffffff;fill-opacity:1;fill-rule:nonzero;stroke:none;stroke-width:0.352778"
           id="path16245"
           inkscape:connector-curvature="0" /><path
           d="m 90.156869,169.20732 h 0.386644 v 0.22119 c 0.06914,-0.13864 0.221192,-0.25329 0.452967,-0.25329 0.274814,0 0.469195,0.16545 0.469195,0.53869 v 0.88759 H 91.07903 v -0.83185 c 0,-0.18909 -0.07444,-0.27976 -0.24518,-0.27976 -0.1651,0 -0.290337,0.10125 -0.290337,0.30657 v 0.80504 h -0.386644 z"
           style="fill:#ffffff;fill-opacity:1;fill-rule:nonzero;stroke:none;stroke-width:0.352778"
           id="path16249"
           inkscape:connector-curvature="0" /><path
           d="m 91.660655,169.92437 v -0.0212 c 0,-0.45861 0.263878,-0.72778 0.613128,-0.72778 0.223661,0 0.362655,0.0984 0.439914,0.23989 v -0.83961 h 0.383822 v 2.02565 h -0.383822 v -0.23177 c -0.07197,0.14111 -0.242711,0.26105 -0.448028,0.26105 -0.338314,0 -0.605014,-0.24236 -0.605014,-0.70626 m 1.063625,-0.0134 v -0.0212 c 0,-0.27729 -0.122767,-0.41875 -0.333375,-0.41875 -0.2159,0 -0.335844,0.14676 -0.335844,0.42404 v 0.0212 c 0,0.27728 0.13335,0.41345 0.325261,0.41345 0.202494,0 0.343958,-0.13617 0.343958,-0.41875"
           style="fill:#ffffff;fill-opacity:1;fill-rule:nonzero;stroke:none;stroke-width:0.352778"
           id="path16253"
           inkscape:connector-curvature="0" /></g></g></g></svg>
